<?xml version="1.0" standalone="no"?>
<!DOCTYPE svg PUBLIC "-//W3C//DTD SVG 20010904//EN"
 "http://www.w3.org/TR/2001/REC-SVG-20010904/DTD/svg10.dtd">
<svg version="1.0" xmlns="http://www.w3.org/2000/svg"
 width="183.000000pt" height="196.000000pt" viewBox="0 0 183.000000 196.000000"
 preserveAspectRatio="xMidYMid meet">
<metadata>
Created by potrace 1.10, written by Peter Selinger 2001-2011
</metadata>
<g transform="translate(0.000000,196.000000) scale(0.100000,-0.100000)"
fill="#000000" stroke="none">
<path d="M1099 1657 c-25 -23 -192 -159 -370 -301 -178 -143 -328 -263 -333
-268 -6 -5 2 -21 21 -40 32 -35 560 -677 620 -756 28 -36 35 -41 30 -22 -70
289 -78 788 -16 1110 13 70 67 246 86 283 8 16 13 30 11 32 -2 2 -24 -16 -49
-38z m-73 -219 c-47 -215 -59 -357 -53 -628 4 -135 11 -274 16 -310 6 -36 7
-68 3 -72 -9 -9 2 -21 -311 361 -182 222 -229 286 -221 296 12 14 467 383 544
441 22 17 42 30 44 29 2 -2 -8 -54 -22 -117z"/>
<path d="M1340 1324 c-113 -40 -215 -78 -226 -83 -31 -14 -55 -178 -61 -422
-5 -188 8 -393 26 -412 4 -4 11 29 14 75 11 143 81 344 183 521 58 101 189
286 248 350 24 26 39 46 32 46 -6 -1 -103 -34 -216 -75z m78 -32 c-1 -5 -42
-67 -90 -138 -86 -127 -161 -269 -208 -391 -22 -55 -26 -60 -33 -40 -18 48 26
454 52 480 14 14 238 96 264 96 10 1 17 -3 15 -7z"/>
<path d="M1257 853 c-61 -120 -93 -212 -116 -340 -24 -132 -32 -214 -20 -193
5 8 28 47 51 85 108 183 299 398 433 488 l70 47 -187 0 -186 0 -45 -87z m256
40 c4 -3 -39 -54 -96 -112 -57 -58 -131 -143 -166 -189 -35 -46 -65 -81 -67
-79 -14 14 50 216 95 306 38 74 50 81 144 81 46 0 87 -3 90 -7z"/>
</g>
</svg>
